<defs>
<font horiz-adv-x="931" ><font-face
    font-family="dustismo-roman-bold"
    units-per-em="2048"
    panose-1="2 0 8 0 8 0 0 2 0 3"
    ascent="1903"
    descent="-495"
    alphabetic="0" />
<missing-glyph horiz-adv-x="1024" d="M282 163H742V1727H282V163ZM119 0V1890H905V0H119Z" />
<glyph unicode=";" glyph-name=".notdef" horiz-adv-x="1024" />
<glyph unicode=" " glyph-name="space" horiz-adv-x="664" />
<glyph unicode="!" glyph-name="exclam" horiz-adv-x="373" d="M93 117Q93 136 100 152T119 181T149 201T185 209Q204 209 221 202T250 182T270 153T277 117Q277 98 270 81T251 52T221 32T185 24Q166 24 149 31T120 51T100 81T93 117ZM302 851L285 692L251 355H120L86
692Q78 775 73 875T67 1095H74Q69 1147 69 1252Q69 1357 69 1518H302V851Z" />
<glyph unicode="&quot;" glyph-name="quotedbl" horiz-adv-x="692" d="M412 1350Q421 1460 512 1459Q603 1459 612 1349L573 1062L451 1063L412 1350ZM75 1350Q84 1460 175 1459Q266 1459 275 1349L236 1062L114 1063L75 1350Z" />
<glyph unicode="#" glyph-name="numbersign" horiz-adv-x="1071" d="M364 486H593Q606 550 617 610T640 729T663 849T687 973H460L364 486ZM788 973Q776 910 764 850T740 731T716 611T692 486H950V389H674Q656 295 636 195T597 0H497L573 389H345Q327 295 308
195T269 0H169L245 389H36V486H266Q278 550 289 610T312 729T335 849T359 973H124V1069H378Q397 1164 416 1265T454 1459H555L480 1069H706Q725 1164 744 1265T782 1459H883L807 1070H1038V973H788Z" />
<glyph unicode="$" glyph-name="dollar" horiz-adv-x="1033" d="M457 1373Q385 1350 333 1289Q304 1254 289 1214T274 1130Q274 1043 321 981T457 881V1373ZM758 375Q758 457 708 517T554 618V106Q597 119 631 142T695 197Q725 235 741 280T758 375ZM457 -23Q325
-18 225 33T52 181V406H146L164 294Q179 201 262 145Q344 90 443 90H457V649Q267 710 177 793Q51 907 51 1097Q51 1273 182 1378L181 1377Q290 1467 457 1479V1651H554V1479Q605 1476 683 1462T870 1423V1192H784L741 1308Q728 1341 654 1364Q604 1380 554 1383V849Q991
714 991 377Q991 199 845 88Q782 40 713 13T554 -20V-183H457V-23Z" />
<glyph unicode="%" glyph-name="percent" horiz-adv-x="1016" d="M359 1229Q359 1377 286 1377Q219 1377 219 1229Q219 1081 286 1081Q359 1081 359 1229ZM796 233Q796 380 723 380Q656 380 656 233Q656 85 723 85Q796 85 796 233ZM271 0H165L747 1459H851L271
0ZM62 1229Q62 1481 289 1481Q516 1481 516 1229Q516 977 289 977Q62 977 62 1229ZM499 233Q499 484 726 484Q953 484 953 233Q953 -19 726 -19Q499 -19 499 233Z" />
<glyph unicode="&amp;" glyph-name="ampersand" horiz-adv-x="1316" d="M417 1243Q417 1144 529 971Q666 1124 666 1232Q666 1298 634 1343Q601 1391 540 1391Q417 1391 417 1243ZM573 140Q686 140 807 208Q679 377 583 510T422 746Q346 678 307 598T267 423Q267
358 290 305T353 213Q435 140 573 140ZM852 97H891Q886 105 881 112T868 129Q677 -21 478 -21Q306 -21 191 78Q70 183 70 353Q70 425 97 495T174 630Q197 659 247 710T370 829Q201 1070 201 1231Q201 1303 222 1360T283 1456T381 1517T513 1539Q573 1539 621 1516T707
1449Q773 1366 773 1244Q773 1190 756 1137T709 1035Q693 1011 660 971T583 882Q627 816 671 752T761 621T858 487T965 345Q1008 398 1037 453T1078 568H987V665H1280V568H1177Q1163 483 1124 408T1022 264Q1052 224 1085 183T1155 97H1262V0H852V97Z" />
<glyph unicode="&apos;" glyph-name="quotesingle" horiz-adv-x="360" d="M75 1350Q84 1460 175 1459Q266 1459 275 1349L236 1062L114 1063L75 1350Z" />
<glyph unicode="(" glyph-name="parenleft" horiz-adv-x="632" d="M570 -480Q270 -316 157 -57Q110 52 87 188T63 496Q63 667 86 804T157 1050Q270 1309 570 1473V1368Q480 1293 422 1193T334 968Q314 887 305 770T296 497Q296 342 305 224T334 25Q391 -225 570
-375V-480Z" />
<glyph unicode=")" glyph-name="parenright" horiz-adv-x="631" d="M62 -375Q241 -226 298 26Q318 107 327 224T336 497Q336 652 327 769T298 968Q269 1093 211 1193T62 1368V1473Q362 1309 475 1050Q522 941 545 804T569 496Q569 325 546 189T475 -57Q362 -316
62 -480V-375Z" />
<glyph unicode="*" glyph-name="asterisk" horiz-adv-x="1006" d="M527 903Q525 895 531 893T543 896Q559 908 577 927T619 974Q646 1006 676 1032T738 1079Q786 1102 819 1102Q869 1102 896 1056Q902 1043 905 1032T909 1010Q909 953 837 909Q804 890 767 878T687
858Q622 848 585 831Q574 828 574 820Q574 814 580 813Q597 806 622 800T685 787Q725 779 763 767T836 736Q872 713 889 688T907 635Q907 615 894 589Q868 543 817 543Q782 543 736 566Q703 587 673 613T617 671H618Q595 699 576 718T540 749Q535 754 531 747T529
733Q534 696 557 634Q571 596 578 557T588 480Q583 354 490 354Q397 356 392 478Q393 517 401 557T423 634Q434 666 441 693T450 737Q452 743 447 747T437 747Q407 726 363 670Q311 608 246 566Q198 543 164 543Q112 543 86 589Q74 611 74 635Q74 689 144 735Q179
755 216 767T296 786H295Q363 798 401 816Q406 818 406 822Q406 829 402 830Q367 846 293 858Q254 866 217 878T144 909Q72 955 72 1010Q72 1021 75 1032T84 1056Q113 1102 163 1102Q197 1102 243 1079Q275 1059 305 1033T361 973L360 974Q383 947 403 928T439
896Q443 892 447 894T451 902Q449 921 442 948T422 1009Q408 1046 401 1086T391 1164Q396 1289 489 1289Q582 1289 587 1164Q585 1126 578 1085T556 1009Q545 977 538 950T528 906L527 903Z" />
<glyph unicode="+" glyph-name="plus" horiz-adv-x="898" d="M511 986V617H881V519H511V121H414V519H15V617H414V986H511Z" />
<glyph unicode="," glyph-name="comma" horiz-adv-x="365" d="M52 121Q52 148 62 172T90 213T132 241T183 252Q210 252 234 242T275 214T303 172T314 121H276Q278 121 284 118T298 111T310 100T316 87Q316 58 309 14T276 -75T201 -158T69 -213V-143Q181 -82 186
-30Q187 -12 168 -11Q148 -11 128 -1T90 28T63 70T52 121Z" />
<glyph unicode="-" glyph-name="hyphen" horiz-adv-x="872" d="M89 778H782V681H89V778Z" />
<glyph unicode="." glyph-name="period" horiz-adv-x="401" d="M67 116Q67 143 77 167T105 208T147 236T198 247Q225 247 249 237T290 209T318 167T329 116Q329 89 319 65T291 23T249 -5T198 -16Q171 -16 147 -6T106 23T78 65T67 116Z" />
<glyph unicode="/" glyph-name="slash" horiz-adv-x="694" d="M110 0H4L586 1459H690L110 0Z" />
<glyph unicode="0" glyph-name="zero" horiz-adv-x="1170" d="M307 721Q307 77 584 77Q862 77 862 730Q862 842 849 941T810 1130Q737 1382 583 1382Q428 1382 356 1126Q307 952 307 721ZM74 734Q74 885 97 1008T164 1226Q226 1352 327 1417T566 1483Q718 1483
827 1419T1001 1237Q1047 1149 1071 1022T1095 730Q1095 -23 566 -23Q286 -23 163 238Q74 430 74 734Z" />
<glyph unicode="1" glyph-name="one" horiz-adv-x="478" d="M44 1433L362 1489V97H434V0H44V97H129V1347Q108 1344 85 1341T44 1336V1433Z" />
<glyph unicode="2" glyph-name="two" horiz-adv-x="1042" d="M73 1137Q90 1228 129 1293T225 1401T351 1464T498 1484Q601 1484 687 1459T835 1385T931 1261T965 1086Q965 1035 951 986T911 891T851 802T776 718Q722 664 662 616T542 519Q510 495 481 472T422
424Q350 363 303 317T239 233Q376 233 512 234T786 235Q873 235 899 398H1007L950 0H47V31Q46 72 50 112T71 195T118 282T200 375V374Q217 390 234 406T269 439Q329 494 391 551T509 665Q620 774 674 872T728 1073Q728 1143 712 1198T666 1293T593 1353T492 1376Q439
1377 391 1363T303 1315T233 1230T186 1104L73 1137Z" />
<glyph unicode="3" glyph-name="three" horiz-adv-x="987" d="M177 226Q195 157 255 121T411 77Q468 78 523 97T613 159Q685 241 685 392Q685 480 653 548T560 665Q534 685 510 695T467 706H349V806H463Q500 815 534 842T593 915Q641 1002 641 1095Q641 1210 586
1292H587Q525 1381 419 1381Q293 1381 212 1205H110Q158 1344 251 1412Q297 1446 351 1463T465 1481Q646 1481 757 1379Q875 1272 875 1093Q875 979 815 882V883Q790 843 758 812T691 759Q741 736 779 704T848 626H847Q921 521 921 384Q921 199 786 85Q656 -25
473 -25Q448 -25 414 -20T334 -2Q250 19 205 19Q180 19 167 0H80V282H177V226Z" />
<glyph unicode="4" glyph-name="four" horiz-adv-x="974" d="M437 97H530V364H22V474L611 1459H763V556H920V364H763V97H858V0H437V97ZM184 556H530Q530 638 530 707Q530 777 530 844T531 982Q531 1052 531 1135L184 556Z" />
<glyph unicode="5" glyph-name="five" horiz-adv-x="1010" d="M854 1239H289Q284 1189 280 1144T272 1053T264 962T255 865Q310 891 368 905T483 919Q696 919 822 790Q950 662 950 448Q950 234 820 105Q692 -22 476 -22Q289 -22 168 121Q109 189 81 274T53 462L188
463Q184 440 182 421T180 387Q180 329 201 277T260 179Q302 134 351 111T457 87Q587 87 661 201Q692 252 707 313T723 448Q723 517 706 580T657 697Q619 751 567 785T454 819Q351 819 240 717L133 723L200 1459H915L854 1239Z" />
<glyph unicode="6" glyph-name="six" horiz-adv-x="1060" d="M306 507Q306 433 318 365T357 234Q391 158 436 118T539 78Q567 78 608 102Q775 201 775 446Q775 588 703 699Q623 822 495 822Q404 822 317 757Q317 736 316 705T311 636Q309 593 308 561T306 507ZM763
1272Q701 1381 576 1381Q549 1381 499 1346Q362 1250 326 873Q441 924 540 924Q744 924 877 793Q1009 662 1009 457Q1009 351 976 263T882 110Q819 48 731 13T538 -23Q309 -23 184 138Q74 279 74 516Q74 1325 361 1446Q450 1483 560 1483Q742 1483 846 1324L763
1272Z" />
<glyph unicode="7" glyph-name="seven" horiz-adv-x="941" d="M31 1459H916V1359Q436 601 446 0H227Q247 174 290 341T400 664Q464 810 545 957T720 1239H207Q123 1240 99 1079H-8L31 1459Z" />
<glyph unicode="8" glyph-name="eight" horiz-adv-x="1073" d="M462 993Q486 973 511 954T561 914Q736 1047 736 1185Q736 1268 676 1325Q616 1382 532 1382Q449 1382 385 1327Q357 1301 341 1266T325 1191Q325 1115 413 1033H412Q425 1023 437 1014T462 993ZM671
557Q638 588 587 625T463 706Q264 555 264 390Q264 269 336 174Q409 72 525 72Q632 72 709 155Q789 236 789 342Q789 449 671 557ZM847 961Q805 926 759 897T659 846Q1031 599 1031 351Q1031 178 872 69Q732 -26 558 -26Q344 -26 208 54Q36 156 36 361Q36 515 154
626V625Q200 670 364 772Q306 815 262 854T189 929Q143 986 117 1050T90 1177Q90 1481 553 1481Q632 1481 700 1465T825 1418Q970 1339 970 1186Q970 1066 847 961Z" />
<glyph unicode="9" glyph-name="nine" horiz-adv-x="1050" d="M542 680Q648 680 737 741Q744 812 747 872T750 984Q750 1123 698 1241Q634 1383 520 1383Q413 1383 342 1246Q311 1187 297 1126T282 1000Q282 938 300 883T350 781Q386 736 436 708T542 680ZM183
68Q300 77 390 98Q642 158 720 619Q651 599 606 591T533 583Q429 583 343 610T192 686Q126 743 87 826T48 1009Q48 1172 135 1300Q230 1439 387 1469Q445 1481 521 1481Q627 1481 714 1444T863 1340Q919 1274 951 1184T984 988Q984 264 652 77Q610 53 556 35T437
5Q409 0 382 -3T327 -11Q299 -15 263 -20T199 -29L183 68Z" />
<glyph unicode=":" glyph-name="colon" horiz-adv-x="337" d="M70 871Q70 898 80 922T108 963T150 991T201 1002Q228 1002 252 992T293 964T321 922T332 871Q332 844 322 820T294 778T252 750T201 739Q174 739 150 749T109 778T81 820T70 871ZM67 116Q67 143 77
167T105 208T147 236T198 247Q225 247 249 237T290 209T318 167T329 116Q329 89 319 65T291 23T249 -5T198 -16Q171 -16 147 -6T106 23T78 65T67 116Z" />
<glyph unicode=";" glyph-name="semicolon" horiz-adv-x="350" d="M44 121Q44 148 54 172T82 213T124 241T175 252Q202 252 226 242T267 214T295 172T306 121H268Q270 121 276 118T290 111T302 100T308 87Q308 58 301 14T268 -75T193 -158T61 -213V-143Q173 -82
178 -30Q179 -12 159 -11Q139 -10 119 0T82 29T55 70T44 121ZM42 868Q42 895 52 919T80 960T122 988T173 999Q200 999 224 989T265 961T293 919T304 868Q304 841 294 817T266 775T224 747T173 736Q146 736 122 746T81 775T53 817T42 868Z" />
<glyph unicode="&lt;" glyph-name="less" horiz-adv-x="899" d="M13 741L809 1233V1054L262 718Q397 636 536 551T809 385V209Q704 272 598 336T390 463T193 583T13 693V741Z" />
<glyph unicode="=" glyph-name="equal" horiz-adv-x="814" d="M37 1070H777V973H37V1070ZM37 606H777V509H37V606Z" />
<glyph unicode="&gt;" glyph-name="greater" horiz-adv-x="896" d="M626 717Q492 799 357 883T89 1049V1227L884 737V697L89 213V390L626 717Z" />
<glyph unicode="?" glyph-name="question" horiz-adv-x="981" d="M350 117Q350 136 357 152T377 181T407 201T443 209Q481 209 508 182T535 117Q535 98 528 81T508 52T479 32T443 24Q424 24 407 31T378 51T358 81T350 117ZM130 1000Q95 1067 76 1114T52 1190Q38
1347 201 1423Q325 1482 476 1482Q556 1482 628 1466T769 1418Q946 1337 946 1188Q946 1150 924 1105T860 1010T758 904T623 792Q484 687 482 519Q482 472 482 416T481 311H384V590Q384 729 469 833L633 1004H632Q674 1048 693 1091T713 1179Q713 1258 638 1322Q603
1351 563 1366T480 1382Q436 1382 400 1374T334 1346H335Q234 1284 234 1211Q234 1185 244 1164Q256 1124 326 1004L130 1000Z" />
<glyph unicode="@" glyph-name="at" horiz-adv-x="1482" d="M938 959Q894 1014 832 1014Q783 1014 737 975T654 871Q624 810 608 745T591 620Q591 551 620 487Q654 415 705 415Q776 415 860 496L938 959ZM1183 1078L1067 455V457Q1064 430 1072 430Q1154 430 1232
602L1231 601Q1259 680 1272 748T1286 874Q1286 971 1259 1052T1174 1201Q1056 1343 868 1343Q615 1343 410 1088Q312 965 263 840T213 583Q213 483 241 399T324 245Q383 176 462 138T636 99Q758 99 833 133Q910 168 1005 270L1076 205Q962 84 862 41Q766 1 615
1Q369 1 200 164Q127 243 89 344T48 571Q66 906 307 1165V1164Q552 1436 882 1436Q1001 1436 1100 1392T1273 1269Q1340 1190 1377 1088T1415 865Q1415 763 1387 670T1305 496Q1242 404 1160 356T978 308Q876 308 853 371Q804 342 752 326T649 310Q520 310 437
402Q398 445 378 499T357 618Q357 720 388 808T477 965Q540 1035 625 1073T810 1112Q896 1112 958 1072Q958 1074 958 1075T959 1078H1183Z" />
<glyph unicode="A" glyph-name="A" horiz-adv-x="1246" d="M701 588Q663 702 627 813T554 1038Q517 922 483 814T412 588H701ZM32 0V102H139Q245 441 351 781T563 1459H674L1110 102H1215V0H781V102H855Q839 152 824 199T794 292T764 386T733 484H379Q363 434
349 387T320 294T291 200T260 102H336V0H32Z" />
<glyph unicode="B" glyph-name="B" horiz-adv-x="1185" d="M420 806H582Q672 806 728 900Q779 982 779 1086Q779 1266 658 1341L659 1340Q628 1356 543 1356H420V806ZM588 103Q695 103 737 127Q796 162 836 249Q856 290 864 329T873 409Q873 495 832 577Q789 665
719 696Q700 703 670 707T598 711H420V103H588ZM519 1459Q609 1459 674 1453T785 1433Q855 1412 906 1368T989 1261Q1009 1219 1019 1175T1030 1084Q1030 984 990 909T878 782Q980 742 1046 652Q1086 599 1105 539T1124 409Q1124 217 993 104Q870 0 676 0H68V103H169V1356H68V1459H519Z"
/>
<glyph unicode="C" glyph-name="C" horiz-adv-x="1139" d="M1103 302L1062 43Q1029 26 980 14T874 -9Q772 -24 688 -24Q481 -24 330 68Q168 168 105 368Q84 438 74 531T64 741Q64 853 73 940T102 1092Q160 1286 324 1387Q472 1481 684 1481Q916 1481 1059 1415L1097
1157H977Q979 1375 673 1378Q552 1367 468 1284T344 1055Q331 998 324 919T316 741Q316 591 333 478T383 295Q439 192 513 136T675 79Q961 76 985 302H1103Z" />
<glyph unicode="D" glyph-name="D" horiz-adv-x="1262" d="M422 102H584Q710 102 764 138Q959 262 959 737Q959 1196 772 1314Q739 1336 689 1346T573 1356H422V102ZM70 1459H637Q798 1459 915 1402T1101 1241Q1152 1156 1179 1027T1207 730Q1207 566 1179 435T1105
219Q1037 114 922 57T646 0H70V103H171V1356H70V1459Z" />
<glyph unicode="E" glyph-name="E" horiz-adv-x="1133" d="M66 103H167V1356H66V1459H1042L1080 1194H972Q948 1356 859 1356H418V782H718V883H835V580H718V679H418V103H894Q982 103 1006 266H1114L1076 0H66V103Z" />
<glyph unicode="F" glyph-name="F" horiz-adv-x="1067" d="M417 1356V782H718V883H835V580H718V679H417V103H517V0H66V103H166V1356H65V1459H1038L1076 1194H968Q942 1356 855 1356H417Z" />
<glyph unicode="G" glyph-name="G" horiz-adv-x="1296" d="M1142 219Q973 -33 664 -25Q318 -22 182 208V207Q72 380 72 721Q72 1076 188 1249V1248Q317 1479 679 1482Q912 1482 1082 1343L1114 1086H995Q995 1206 914 1295Q834 1379 680 1380Q508 1382 420 1215T324
724Q331 405 416 240T665 76Q738 78 796 103T896 174V555H754V661H1230V557H1142V219Z" />
<glyph unicode="H" glyph-name="H" horiz-adv-x="1345" d="M821 103H920V679H423V103H524V0H72V103H172V1356H72V1459H524V1356H423V782H920V1356H821V1459H1273V1356H1172V103H1273V0H821V103Z" />
<glyph unicode="I" glyph-name="I" horiz-adv-x="559" d="M30 1459H524V1356H410V103H524V0H30V103H158V1356H30V1459Z" />
<glyph unicode="J" glyph-name="J" horiz-adv-x="615" d="M185 1356H77V1459H543V1356H437V130Q435 -108 348 -244Q258 -384 33 -407L-11 -311Q186 -304 185 134V1356Z" />
<glyph unicode="K" glyph-name="K" horiz-adv-x="1394" d="M1239 1459V1356H1113Q967 1226 827 1102T539 846Q707 657 871 475T1203 103H1317V0H849V103H884Q823 170 767 232T654 357T541 482T423 614V103H524V0H71V103H172V1356H71V1459H524V1356H423V883Q493
945 559 1003T690 1118T822 1234T961 1356H944V1459H1239Z" />
<glyph unicode="L" glyph-name="L" horiz-adv-x="1140" d="M420 103H898Q987 103 1011 266H1119L1081 0H68V103H167V1356H66V1459H517V1356H420V103Z" />
<glyph unicode="M" glyph-name="M" horiz-adv-x="1542" d="M294 103H395V0H77V103H178V1356H77V1459H426L771 412Q858 672 945 935T1120 1459H1465V1356H1363V103H1464V0H1013V103H1110V1052Q1071 937 1026 801T933 525T841 249T758 0H648L294 1065V103Z" />
<glyph unicode="N" glyph-name="N" horiz-adv-x="1254" d="M1087 1356V0H950L288 1153V103H387V0H70V103H171V1356H70V1459H393L970 467V1356H871V1459H1187V1356H1087Z" />
<glyph unicode="O" glyph-name="O" horiz-adv-x="1263" d="M644 1379Q334 1379 334 730Q334 80 645 80Q955 80 955 729Q955 1379 644 1379ZM644 1483Q1208 1483 1208 730Q1208 -24 645 -24Q82 -24 82 730Q82 1483 644 1483Z" />
<glyph unicode="P" glyph-name="P" horiz-adv-x="1199" d="M423 780H675Q717 780 756 805T831 879Q861 925 878 973T896 1068Q896 1182 830 1269Q761 1357 652 1357L423 1356V780ZM69 103L170 102V1356H69V1459H681Q774 1459 854 1435T1001 1364Q1072 1310 1111
1236T1150 1069Q1150 985 1115 912T1015 782Q952 731 876 703T715 674H423V103H531V0H69V103Z" />
<glyph unicode="Q" glyph-name="Q" horiz-adv-x="1265" d="M635 1379Q325 1379 325 730Q325 80 636 80Q947 80 947 729Q947 1379 635 1379ZM635 1483Q1200 1483 1200 730Q1200 442 1122 267T881 22Q940 -7 1029 -85Q1056 -111 1086 -131T1139 -161Q1173 -172 1273
-177Q1292 -178 1321 -179T1369 -182L1370 -220Q1200 -271 1099 -271Q989 -271 921 -233Q906 -224 882 -202T822 -147Q793 -119 762 -98T701 -63Q675 -53 636 -42T545 -19H547Q73 39 73 730Q73 1483 635 1483Z" />
<glyph unicode="R" glyph-name="R" horiz-adv-x="1325" d="M421 780H673Q715 780 754 805T829 879Q859 925 876 973T894 1068Q894 1182 828 1269Q759 1357 650 1357L421 1356V780ZM421 103H529V0H67V103L168 102V1356H67V1459H679Q773 1459 854 1435T1000 1364Q1071
1310 1109 1236T1148 1069Q1148 1000 1122 937T1046 820Q1003 775 949 741T834 691Q873 557 963 412T1193 103H1301V0H977Q855 161 758 329T587 674H421V103Z" />
<glyph unicode="S" glyph-name="S" horiz-adv-x="1077" d="M754 1305Q744 1322 722 1335T665 1360Q636 1368 604 1373T543 1379Q448 1379 378 1303V1304Q308 1228 308 1129Q308 1007 390 943Q416 921 466 898T592 849Q698 814 777 767T908 664Q964 604 993 532T1022
379Q1022 187 857 75V76Q785 26 702 2T521 -22Q227 -22 67 184V411H181L199 297Q211 205 293 149Q371 97 468 97Q597 97 682 173Q771 251 771 376Q771 520 598 603H599Q557 621 515 640T430 678Q388 697 345 716T260 754Q66 875 66 1096Q66 1280 209 1387Q335 1482
525 1482Q588 1482 682 1467T902 1421V1188H797L754 1305Z" />
<glyph unicode="T" glyph-name="T" horiz-adv-x="1129" d="M1095 1459L1133 1194H1025Q1001 1356 912 1356H695V103H794V0H340V103H444V1356H227Q138 1356 114 1194H6L44 1459H1095Z" />
<glyph unicode="U" glyph-name="U" horiz-adv-x="1283" d="M895 1459H1223V1356H1120V602Q1120 -19 646 -19Q364 -19 243 164Q145 315 145 605V1356H42V1459H495V1356H396V597Q396 345 435 248Q496 86 694 86Q994 86 994 606V1356H895V1459Z" />
<glyph unicode="V" glyph-name="V" horiz-adv-x="1246" d="M692 420Q729 539 765 655T838 887T911 1119T986 1356H910V1459H1214V1357H1107Q1001 1019 895 679T683 0H572L136 1356H31V1459H465V1356H392L692 420Z" />
<glyph unicode="W" glyph-name="W" horiz-adv-x="1746" d="M940 1154Q957 1205 973 1252T1006 1356H872L940 1154ZM510 1459H1235V1357H1128Q1096 1254 1065 1155T1001 952Q1009 929 1051 797T1172 418Q1209 537 1245 653T1318 886T1390 1119T1465 1356H1390V1459H1694V1357H1587Q1481
1019 1375 679T1163 0H1053L875 552Q832 415 789 275T704 0H593L156 1356H51V1459H486V1356H412Q485 1126 561 888T712 417Q738 499 763 579T814 743Q763 900 715 1049T616 1356H510V1459Z" />
<glyph unicode="X" glyph-name="X" horiz-adv-x="1344" d="M69 0V104H184Q275 263 364 416T545 729Q453 889 363 1043T182 1358Q174 1358 164 1358Q154 1358 141 1357Q132 1357 122 1357T100 1356Q90 1356 81 1356Q73 1356 69 1356V1459H495V1356H439Q497 1255
555 1154T673 951Q704 1004 733 1053T790 1152T847 1251T908 1356H860V1459H1149V1356H1040Q964 1223 890 1097T740 838Q847 652 951 471T1163 103H1275V0H853V103H906Q834 228 758 358T610 616Q571 549 534 486T461 361T387 234T311 103H362V0H69Z" />
<glyph unicode="Y" glyph-name="Y" horiz-adv-x="1283" d="M409 103H512Q512 262 512 413T511 725Q418 886 329 1040T147 1356H35V1459H486V1356H434Q502 1229 570 1103T707 846Q746 912 782 975T855 1100T929 1225T1005 1356H955V1459H1248V1358H1136Q1042 1196
951 1039T765 720V103H863V0H409V103Z" />
<glyph unicode="Z" glyph-name="Z" horiz-adv-x="1178" d="M919 103Q1006 103 1032 266H1140L1102 0H59V74L806 1356H278Q190 1356 165 1194H57L95 1459H1094V1394L338 103H919Z" />
<glyph unicode="[" glyph-name="bracketleft" horiz-adv-x="575" d="M563 1361H318V-371H563V-468H86V1458H563V1361Z" />
<glyph unicode="\" glyph-name="backslash" horiz-adv-x="694" d="M4 1459H108L690 0H584L4 1459Z" />
<glyph unicode="]" glyph-name="bracketright" horiz-adv-x="591" d="M10 1460H504V-467H10V-370H272V1362H10V1460Z" />
<glyph unicode="^" glyph-name="asciicircum" horiz-adv-x="1022" d="M205 762H80L477 1459H577L976 762H850L528 1326L205 762Z" />
<glyph unicode="_" glyph-name="underscore" horiz-adv-x="978" d="M-3 -90H984V-188H-3V-90Z" />
<glyph unicode="`" glyph-name="grave" horiz-adv-x="449" d="M244 1427L419 1134L269 1076L0 1410L244 1427Z" />
<glyph unicode="a" glyph-name="a" horiz-adv-x="1087" d="M413 72Q488 72 572 151Q610 186 638 224T680 302V526Q653 515 615 502T525 475H526Q470 458 432 442T370 407V408Q306 356 306 248Q306 177 330 129Q358 72 413 72ZM158 955Q277 983 356 997T475 1012Q702
1012 798 942Q911 856 911 633V212Q911 97 914 97H1030V0H722Q690 49 682 125Q659 98 629 73T566 29Q470 -24 363 -24Q235 -24 156 41Q73 112 73 241Q73 407 201 475Q262 507 458 547Q616 578 673 632Q675 642 677 654T679 681Q679 915 434 915Q275 915 253 710H158V955Z"
/>
<glyph unicode="b" glyph-name="b" horiz-adv-x="1075" d="M400 170Q416 153 436 136T483 103Q537 73 585 73Q596 73 606 75T630 83H629Q802 153 802 488Q802 793 660 893H661Q632 913 603 913Q555 913 505 888T401 812L400 170ZM68 0V97H170V1362H68V1459H402L401
948Q447 977 503 993T626 1009Q1035 1009 1035 493Q1035 -20 615 -20Q551 -20 498 -6T400 39V0H68Z" />
<glyph unicode="c" glyph-name="c" horiz-adv-x="954" d="M773 757Q729 838 677 877T561 916Q420 916 353 772Q302 662 302 488Q302 419 316 353T356 228Q423 82 535 82Q722 82 808 295L887 244Q873 183 833 131T738 43Q686 11 628 -6T510 -23Q392 -23 304 16T162
126Q117 190 94 284T70 500Q70 1011 510 1011Q549 1011 632 987Q706 967 745 967Q769 967 783 986H870V704H773V757Z" />
<glyph unicode="d" glyph-name="d" horiz-adv-x="1113" d="M697 812Q643 862 593 887T495 913Q467 913 438 893H439Q296 789 296 488Q296 153 469 83H468Q481 78 491 76T513 73Q561 73 615 103Q667 133 698 170L697 812ZM595 1459H928V97H1030V0H698V39Q611 -20
483 -20Q63 -20 63 493Q63 1009 472 1009Q605 1009 697 949Q697 1056 697 1154T696 1362H595V1459Z" />
<glyph unicode="e" glyph-name="e" horiz-adv-x="1030" d="M733 610Q725 759 671 834T516 910Q403 910 349 807Q328 769 317 721T304 610H733ZM301 513Q300 492 300 479T301 461Q301 85 572 85Q667 85 750 134Q789 160 822 199T878 290L964 237Q937 169 891 119T783
34Q729 6 666 -9T534 -24Q417 -24 328 17T178 137Q126 207 99 303T71 518Q71 736 180 869Q298 1011 517 1011Q624 1011 705 977T847 873Q956 746 969 513H301Z" />
<glyph unicode="f" glyph-name="f" horiz-adv-x="674" d="M168 97V889H38V986H168V1161Q168 1467 432 1484Q486 1485 533 1473T618 1440Q623 1440 630 1445T643 1462H733V1206H636V1262Q619 1324 588 1352T507 1378Q404 1372 399 1226Q399 1161 399 1106T400 986H614V889H400Q400
688 400 494T401 97H538V0H67V97H168Z" />
<glyph unicode="g" glyph-name="g" horiz-adv-x="1041" d="M737 -219Q737 -174 712 -137T640 -70Q597 -46 549 -33T448 -20Q425 -20 358 -56Q208 -133 208 -236Q208 -371 440 -371Q582 -371 640 -351Q737 -320 737 -219ZM325 607Q325 503 372 415Q424 317 515
317Q608 317 659 416Q704 503 704 612Q704 718 656 807Q603 911 513 911Q421 911 370 806Q325 717 325 607ZM965 889H833Q938 781 938 614Q938 557 924 504T879 403V404Q851 356 811 320T722 260Q664 188 538 143Q424 102 410 95V93Q415 86 472 71L471 72L556 54Q583
49 609 43T663 32Q793 1 864 -47Q962 -112 962 -222Q962 -469 485 -469Q8 -469 8 -254Q8 -88 287 16Q279 18 276 18Q273 18 269 20Q199 44 199 97Q199 154 379 207L437 222Q377 232 325 256T227 315Q164 369 129 443T93 609Q93 793 215 902H214Q328 1008 513 1008Q548
1008 576 1006T625 997Q637 994 647 991T666 986H965V889Z" />
<glyph unicode="h" glyph-name="h" horiz-adv-x="1179" d="M76 97H177Q177 418 178 729T179 1362H78V1459H412L411 932Q465 973 521 991T644 1010Q838 1010 943 890Q1042 777 1042 583V97H1143V0H709V97H809V578Q809 911 611 911Q560 911 510 883T411 800V97H511V0H76V97Z"
/>
<glyph unicode="i" glyph-name="i" horiz-adv-x="586" d="M369 948V58H467V39H111V58H214V928H111V948H369ZM160 1314Q160 1341 170 1365T198 1407T240 1435T291 1446Q318 1446 342 1436T383 1407T411 1365T422 1314Q422 1287 412 1263T384 1222T342 1194T291
1183Q264 1183 240 1193T199 1221T171 1263T160 1314Z" />
<glyph unicode="j" glyph-name="j" horiz-adv-x="437" d="M173 928H72V948H327V68Q326 -149 251 -275T25 -427Q24 -416 22 -409Q173 -371 173 72V928ZM118 1316Q118 1343 128 1367T157 1409T199 1437T250 1448Q277 1448 301 1438T342 1409T370 1367T381 1316Q381
1289 371 1265T343 1224T301 1196T250 1185Q223 1185 199 1195T157 1223T129 1265T118 1316Z" />
<glyph unicode="k" glyph-name="k" horiz-adv-x="1005" d="M71 1362V1459H408V630Q438 663 467 694T525 757T584 821T647 889H631V986H890V889H783Q713 812 648 742T512 594Q609 469 705 346T898 97H1005V0H596V97H626Q596 135 570 169T519 237T466 306T408 382V97H511V0H74V97H175V1362H71Z"
/>
<glyph unicode="l" glyph-name="l" horiz-adv-x="515" d="M43 97H144V1362H43V1459H377V97H478V0H43V97Z" />
<glyph unicode="m" glyph-name="m" horiz-adv-x="1688" d="M1123 919Q1099 919 1073 907T1018 868Q964 816 962 760Q962 590 962 429T963 97H1064V0H630V97H730V634Q730 919 578 919Q537 919 480 871Q420 821 420 785V97H520V0H86V97H187V889H86V986H420V946Q460
977 508 993T611 1010Q706 1010 781 979T910 890Q993 1010 1158 1010Q1507 1010 1507 586V97H1608V0H1174V97H1274V634Q1274 919 1123 919Z" />
<glyph unicode="n" glyph-name="n" horiz-adv-x="1238" d="M719 0V97H819V578Q819 911 621 911Q515 911 420 798V97H521V0H86V97H187V889H86V986H420V932Q471 970 529 990T654 1010Q848 1010 953 890Q1052 777 1052 583V97H1153V0H719Z" />
<glyph unicode="o" glyph-name="o" horiz-adv-x="1081" d="M307 488Q307 326 353 219Q413 75 541 75Q604 75 651 112T729 218Q751 272 763 340T775 486Q775 648 729 761Q667 912 542 912Q477 912 430 873T352 765Q332 711 320 640T307 488ZM1007 493Q1007 219
889 98Q773 -21 502 -21Q74 -21 74 493Q74 1009 565 1009Q1007 1009 1007 493Z" />
<glyph unicode="p" glyph-name="p" horiz-adv-x="1077" d="M402 174Q510 74 604 74Q632 74 661 94Q803 194 803 498Q803 832 630 904H631Q618 909 608 911T586 914Q540 914 484 882Q431 853 401 816L402 174ZM69 -376H171V889H69V986H401V948Q490 1007 616 1007Q1036
1007 1036 493Q1036 -22 627 -22Q492 -22 402 38Q402 -69 402 -168T403 -376H502V-473H69V-376Z" />
<glyph unicode="q" glyph-name="q" horiz-adv-x="1075" d="M676 816Q645 855 593 883Q540 914 491 914Q480 914 470 912T446 904H447Q274 832 274 498Q274 198 417 94Q445 74 473 74Q567 74 675 174L676 816ZM906 -376H1008V-473H575V-376H674Q674 -320 674 -269Q674
-219 674 -170T675 -69Q675 -18 675 39Q582 -22 450 -22Q41 -22 41 493Q41 1007 461 1007Q589 1007 676 948V986H905L906 -376Z" />
<glyph unicode="r" glyph-name="r" horiz-adv-x="918" d="M397 986V945Q483 1004 605 1004Q778 1004 900 896L758 734Q692 904 582 904Q472 904 397 808Q398 625 398 453T400 97H501V0H67V97H168V889H67V986H397Z" />
<glyph unicode="s" glyph-name="s" horiz-adv-x="904" d="M194 230Q215 191 237 162T280 115Q335 72 416 72Q496 72 552 119Q611 169 611 243Q611 283 578 319T489 383Q458 397 427 410T365 437Q333 450 302 463T239 491Q95 579 95 732Q95 798 128 851T221 946Q273
978 334 995T464 1013Q483 1013 513 1007T579 988Q611 979 638 973T682 967Q706 967 720 986H807V704H710V757Q629 914 499 914Q423 914 374 868Q325 823 325 749Q325 685 385 652V653Q401 645 457 623T611 565Q833 479 833 257Q833 182 795 125T690 31Q638 7 569
-8T423 -23Q404 -23 378 -18T316 -1Q284 10 261 14T222 19Q197 19 184 0H96V282H194V230Z" />
<glyph unicode="t" glyph-name="t" horiz-adv-x="647" d="M599 889H428V237Q428 149 459 125Q485 105 599 96V-1Q502 1 437 8T339 25Q196 70 196 213V889H44V986Q166 986 251 1082Q288 1123 316 1175T365 1294H428V986H599V889Z" />
<glyph unicode="u" glyph-name="u" horiz-adv-x="1200" d="M397 986V409Q397 76 595 76Q701 76 796 189V889H695V986H1029V97H1130V0H796V54Q745 17 687 -3T562 -23Q368 -23 263 96Q164 208 164 404V889H63V986H397Z" />
<glyph unicode="v" glyph-name="v" horiz-adv-x="1070" d="M37 889V986H451V889H382Q411 814 438 745T491 607T544 468T601 321Q629 395 656 465T709 604T763 743T820 889H753V986H1032V889H925Q840 669 753 445T581 0H489L144 889H37Z" />
<glyph unicode="w" glyph-name="w" horiz-adv-x="1612" d="M21 889V986H435V889H365Q394 814 421 745T474 607T528 469T585 322Q626 429 665 531T746 741Q731 782 718 815T689 889H582V986H1016V889H927Q956 814 983 745T1036 607T1090 468T1146 321Q1174 395
1201 465T1254 604T1308 743T1365 889H1298V986H1577V889H1470Q1385 669 1298 445T1126 0H1034L799 607Q740 455 682 303T565 0H473L128 889H21Z" />
<glyph unicode="x" glyph-name="x" horiz-adv-x="1106" d="M83 0V97H193Q258 186 320 271T447 445Q376 559 309 666T172 889H70V986H494V889H445Q472 845 507 788T596 647Q620 679 641 708T684 767T727 826T774 889H737V986H1007V891H896Q832 804 773 723T650
555Q724 437 792 327T934 97H1038V0H577V97H660Q639 131 620 162T582 224T543 287T501 354Q476 321 454 290T409 228T363 165T314 97H354V0H83Z" />
<glyph unicode="y" glyph-name="y" horiz-adv-x="1031" d="M391 889Q418 818 443 754T493 625T543 496T597 358Q623 427 648 492T698 622T748 753T800 889H729V986H1009V889H904Q795 602 688 318T472 -253Q388 -474 223 -474Q192 -474 150 -465L151 -279Q224 -316
263 -316Q339 -316 383 -215L382 -216Q407 -148 430 -85T479 47Q396 261 317 468T154 889H49V986H460V889H391Z" />
<glyph unicode="z" glyph-name="z" horiz-adv-x="1038" d="M946 0H87V63L658 889H354Q197 889 152 751H55L109 986H933V930L357 97H710Q859 100 903 235H1000L946 0Z" />
<glyph unicode="{" glyph-name="braceleft" horiz-adv-x="596" d="M561 -483H532Q414 -483 311 -420Q159 -329 159 -136V272Q159 430 26 440V536Q159 539 159 704V1113Q159 1306 311 1397Q413 1459 561 1459V1363Q453 1358 417 1293V1294Q387 1237 387 1122Q387
1102 388 1072T391 997Q393 954 394 921T395 866Q395 707 352 621Q307 527 208 486Q277 456 324 397Q391 314 391 202V-181Q391 -279 420 -326Q457 -382 561 -386V-483Z" />
<glyph unicode="|" glyph-name="bar" horiz-adv-x="268" d="M80 1459H178V-468H80V1459Z" />
<glyph unicode="}" glyph-name="braceright" horiz-adv-x="597" d="M35 -386Q139 -382 176 -326Q205 -279 205 -181V202Q205 257 222 307T271 398Q319 456 390 487Q354 503 325 525T271 579Q205 660 205 774V1158Q205 1256 176 1303Q139 1359 35 1363V1459H64Q122
1459 177 1444T285 1397Q437 1306 437 1113V704Q437 539 570 536V440Q437 430 437 272V-136Q437 -329 285 -420Q181 -483 35 -483V-386Z" />
<glyph unicode="~" glyph-name="asciitilde" horiz-adv-x="1188" d="M1116 1209Q1031 934 795 934Q722 934 564 1017Q417 1095 365 1095Q301 1095 254 1054Q231 1033 165 941L73 982Q147 1257 393 1257Q466 1257 624 1174Q776 1095 825 1095Q934 1095 1023 1251L1116
1209Z" />
<glyph unicode="&#xa0;" glyph-name="uni00A0" horiz-adv-x="664" />
<glyph unicode="&#xa1;" glyph-name="exclamdown" horiz-adv-x="374" d="M69 1050H302V816H69V1050ZM69 -468V198L86 358L120 695H251L285 358Q293 275 298 175T304 -46H296Q301 -98 301 -202T302 -468H69Z" />
<glyph unicode="&#xa2;" glyph-name="cent" horiz-adv-x="888" d="M278 488Q278 428 287 375T316 269Q381 432 444 589T574 913Q553 916 532 916Q393 916 328 770Q278 658 278 488ZM700 970Q715 968 723 968T738 967Q745 967 758 986H846V704H749V757Q729 795
707 822T661 872Q589 690 519 515T377 158Q407 121 441 102T511 82Q698 82 784 295L863 244Q849 183 809 131T714 43Q662 11 604 -6T486 -23Q439 -23 397 -18T315 0Q292 -58 267 -119T220 -238H114L225 40Q46 149 46 500Q46 1011 486 1011Q512 1011 542 1007T606
994Q628 1049 651 1108T696 1221H800L700 970Z" />
<glyph unicode="&#xa3;" glyph-name="sterling" horiz-adv-x="1126" d="M120 684H250Q241 706 233 728T216 773Q205 801 194 830T171 889Q119 1035 119 1133Q119 1320 267 1412Q389 1487 580 1487Q759 1487 852 1411Q949 1329 967 1131L733 1127Q715 1387 560
1387Q469 1387 408 1306Q352 1229 352 1131Q352 1088 364 1030T401 902Q424 845 444 793T487 684H644V587H515Q527 527 527 473Q527 404 493 328T391 166Q399 167 406 167Q414 167 422 167Q488 167 599 121Q651 98 684 88T733 78Q767 78 843 150L1074 120Q911 -19
762 -19Q730 -19 686 -9T583 22Q527 43 488 53T422 63Q341 60 183 -30L50 85Q125 149 173 203T242 305Q294 393 294 484Q294 502 291 528T281 587H120V684Z" />
<glyph unicode="&#xa4;" glyph-name="currency" horiz-adv-x="1167" d="M291 746Q291 624 376 539Q460 453 581 453Q702 453 788 539Q875 624 875 746Q875 867 788 953Q703 1039 581 1039Q461 1039 376 952Q291 867 291 746ZM972 231L786 415Q739 386 686 371T579
356Q471 356 371 418L183 231L112 296L297 481Q194 591 194 741Q194 801 209 854T256 957Q211 1003 161 1053T66 1147L137 1212L317 1031Q427 1135 580 1135Q731 1135 847 1030L1031 1214L1102 1149L909 956Q972 861 972 746Q972 590 862 477Q883 456 906 433T954
385T1000 338T1043 296L972 231Z" />
<glyph unicode="&#xa5;" glyph-name="yen" horiz-adv-x="1287" d="M231 681H521V724Q427 886 338 1042T154 1361H44V1458H445V1361H394Q434 1291 472 1225T547 1092T623 959T702 821Q744 893 783 959T860 1091T938 1222T1019 1361H968V1458H1243V1363H1133Q1037
1199 944 1041T755 719V681H1049V584H756V389H1049V292H757V96H856V-1H420V96H521V292H231V389H521V584H231V681Z" />
<glyph unicode="&#xa6;" glyph-name="brokenbar" horiz-adv-x="376" d="M113 655V1459H211V655H113ZM211 -468H113V338H211V-468Z" />
<glyph unicode="&#xa7;" glyph-name="section" horiz-adv-x="894" d="M593 716Q593 830 390 894Q305 853 305 751Q305 678 392 639L390 640Q415 632 440 624T491 608Q508 602 520 599T549 590Q570 615 581 646T593 716ZM174 230Q195 191 217 162T260 115Q315 72
396 72Q476 72 532 119Q591 167 591 243Q591 285 558 321T469 383Q438 397 407 410T345 437Q313 450 282 463T219 491Q75 579 75 733Q75 811 113 868T232 963Q95 1053 95 1204Q95 1270 127 1324T220 1418Q272 1450 334 1468T464 1486Q483 1486 513 1480T578 1461Q610
1452 637 1446T681 1440Q706 1440 719 1459H807V1177H710V1230Q668 1310 616 1348T499 1386Q461 1386 430 1375T373 1341Q349 1318 337 1289T324 1222Q324 1162 386 1127Q397 1119 516 1077Q817 969 817 730Q817 654 785 598T694 507Q813 405 813 257Q813 182 775
125T670 31Q618 7 549 -8T403 -23Q384 -23 358 -18T296 -1Q264 10 241 14T202 19Q177 19 164 0H76V282H174V230Z" />
<glyph unicode="&#xa8;" glyph-name="dieresis" horiz-adv-x="778" d="M456 1461H690V1228H456V1461ZM87 1459H321V1226H87V1459Z" />
<glyph unicode="&#xa9;" glyph-name="copyright" horiz-adv-x="1431" d="M964 882Q883 1016 761 1016Q695 1016 647 987T566 901Q540 853 527 792T513 657Q513 537 569 433V434Q636 316 737 316Q918 316 999 495L1075 450Q1060 394 1022 349T926 273Q825 221 713
221Q603 221 522 249T388 336Q290 444 290 666Q290 1101 713 1101Q754 1101 830 1082Q899 1064 938 1064Q961 1064 975 1081H1046Q900 1201 705 1201Q483 1201 327 1045Q172 890 172 665Q172 442 327 286Q484 129 703 129Q926 129 1084 285Q1242 440 1242 665Q1242
889 1085 1045Q1079 1052 1073 1057T1059 1069V837H964V882ZM75 670Q75 930 259 1114Q353 1206 463 1252T704 1298Q967 1298 1154 1114Q1339 929 1339 665Q1339 401 1154 216Q968 33 702 33Q437 33 256 219Q75 404 75 670Z" />
<glyph unicode="&#xaa;" glyph-name="ordfeminine" horiz-adv-x="670" d="M190 980Q190 883 252 883Q286 883 337 931Q382 973 401 1012V1149Q387 1144 373 1139T344 1129Q323 1122 303 1116T263 1102Q190 1061 190 980ZM84 1435Q219 1473 287 1473Q425 1473 490
1423Q564 1363 564 1228Q564 1204 561 1159Q561 1154 561 1147T560 1135Q559 1121 559 1111Q559 1101 559 1093Q559 1040 563 993T575 901Q591 901 607 901T637 900V824H432Q426 842 421 860T413 894Q375 849 327 829T219 808Q32 808 32 983Q32 1091 115 1136V1135Q134
1146 174 1157T277 1182Q324 1192 355 1203T403 1232Q404 1237 405 1243T406 1258Q406 1397 262 1397Q174 1397 157 1270H84V1435Z" />
<glyph unicode="&#xab;" glyph-name="guillemotleft" horiz-adv-x="888" d="M371 473L683 946H823L598 474Q624 418 652 358T710 237T768 116T823 0H683L371 473ZM22 473L374 946H516L238 473Q271 417 306 357T378 236T449 115T516 0H374L22 473Z" />
<glyph unicode="&#xac;" glyph-name="logicalnot" horiz-adv-x="1108" d="M14 986H1014V465H917V889H14V986Z" />
<glyph unicode="&#xad;" glyph-name="minus" horiz-adv-x="829" d="M88 775H740V678H88V775Z" />
<glyph unicode="&#xae;" glyph-name="registered" horiz-adv-x="1431" d="M619 698H756Q797 698 828 741V740Q842 761 849 783T856 830Q856 877 823 919H824Q791 961 743 961H619V698ZM403 364L452 363V961H403V1040H759Q851 1040 920 983V984Q996 923 996 830Q996
792 982 759T945 699Q923 677 896 660T839 636Q862 568 903 502T1008 364H1065V275H865Q744 452 674 616H619V364H667V275H403V364ZM178 637Q178 414 333 258Q490 101 709 101Q932 101 1090 257Q1248 412 1248 637Q1248 861 1091 1017Q935 1173 711 1173Q489 1173
333 1017Q178 862 178 637ZM81 642Q81 902 265 1086Q359 1178 469 1224T710 1270Q973 1270 1160 1086Q1345 901 1345 637Q1345 371 1160 188Q974 5 708 5Q443 5 262 191Q81 376 81 642Z" />
<glyph unicode="&#xaf;" glyph-name="overscore" horiz-adv-x="829" d="M88 1461H740V1364H88V1461Z" />
<glyph unicode="0;" glyph-name="degree" horiz-adv-x="588" d="M364 1229Q364 1377 291 1377Q224 1377 224 1229Q224 1081 291 1081Q364 1081 364 1229ZM67 1229Q67 1481 294 1481Q521 1481 521 1229Q521 977 294 977Q67 977 67 1229Z" />
<glyph unicode="1;" glyph-name="plusminus" horiz-adv-x="917" d="M24 269H423V627H24V724H423V1093H520V724H890V627H520V269H890V171H24V269Z" />
<glyph unicode="2;" glyph-name="twosuperior" horiz-adv-x="1042" d="M88 1264Q88 1376 174 1433Q251 1483 356 1483Q524 1483 591 1383V1384Q612 1356 621 1326T631 1262Q631 1181 529 1094Q481 1056 434 1017T339 939Q285 894 254 867T209 823H574V878H650V685H66V711Q64
801 164 896Q211 934 257 971T349 1048Q398 1090 428 1129T469 1198Q472 1210 474 1224T476 1256Q476 1284 466 1305T436 1345Q416 1365 389 1373T330 1382Q260 1382 215 1356Q163 1328 162 1261L88 1264Z" />
<glyph unicode="3;" glyph-name="threesuperior" horiz-adv-x="655" d="M132 829Q134 825 134 825Q173 764 239 764Q302 764 341 802T381 905Q381 949 348 996Q316 1044 278 1044H197V1131Q271 1131 279 1133H278Q312 1143 336 1181Q357 1215 357 1258Q357
1310 329 1345Q303 1382 253 1382Q200 1382 149 1293H58Q122 1469 277 1469Q379 1469 446 1417Q482 1388 501 1348T521 1257Q521 1147 441 1091Q546 1029 546 901Q546 799 460 734Q385 677 282 677Q270 677 250 680T202 690Q156 700 129 700Q124 700 117 690H42V870H132V829Z"
/>
<glyph unicode="4;" glyph-name="acute" horiz-adv-x="449" d="M449 1423L179 1089L29 1147L204 1440L449 1423Z" />
<glyph unicode="5;" glyph-name="mu" horiz-adv-x="1104" d="M760 0Q755 19 751 37T744 70Q705 22 656 1T543 -21Q406 -21 331 63Q312 -305 145 -386L-21 -324Q82 -262 115 -83Q125 -27 130 71T135 313L137 986H368Q369 892 369 790T371 592Q376 353 398 230Q417
108 538 108Q648 108 668 228Q677 280 677 580Q677 661 677 767T674 986H908Q908 951 914 826T934 506Q938 450 943 368T959 176Q961 163 963 144T969 99L968 100Q968 97 962 97H1075V0H760Z" />
<glyph unicode="6;" glyph-name="paragraph" horiz-adv-x="945" d="M751 1362V0H654V1362H484V0H387V691Q312 703 250 732T140 807Q34 912 34 1074Q34 1254 172 1361H171Q232 1411 308 1435T476 1459H852V1362H751Z" />
<glyph unicode="7;" glyph-name="middot" horiz-adv-x="401" d="M65 894Q65 921 75 945T103 986T145 1014T196 1025Q223 1025 247 1015T288 987T316 945T327 894Q327 867 317 843T289 801T247 773T196 762Q169 762 145 772T104 801T76 843T65 894Z" />
<glyph unicode="8;" glyph-name="cedilla" horiz-adv-x="441" d="M202 59H313L216 -103Q264 -118 292 -128T331 -144Q399 -186 399 -281Q399 -396 302 -441Q271 -454 226 -461T118 -468H39V-371L102 -372Q175 -373 175 -271Q175 -250 169 -234T153 -209Q144
-202 118 -196T51 -182L202 59Z" />
<glyph unicode="9;" glyph-name="onesuperior" horiz-adv-x="478" d="M32 1459H256V779H299V691H32V779H83V1370H32V1459Z" />
<glyph unicode="a;" glyph-name="ordmasculine" horiz-adv-x="769" d="M230 1075Q230 770 379 770Q529 770 529 1077Q529 1184 497 1272Q456 1384 379 1384Q303 1384 261 1272Q246 1228 238 1179T230 1075ZM58 1080Q58 1473 369 1473Q702 1473 702 1077Q702
681 369 681Q58 681 58 1080Z" />
<glyph unicode="b;" glyph-name="guillemotright" horiz-adv-x="928" d="M509 0H367L645 473Q612 528 577 588T505 710T434 831T367 946H509L861 473L509 0ZM200 0H60L285 472Q259 528 231 588T173 709T115 830T60 946H200L512 473L200 0Z" />
<glyph unicode="c;" glyph-name="onequarter" horiz-adv-x="1287" d="M712 319H936Q936 362 936 395Q936 429 936 461T937 527Q937 561 937 605L712 319ZM44 1459H269L270 778H313V690H45V778H97Q97 856 97 929Q97 1002 97 1074T96 1219Q96 1292 96 1370H44V1459ZM127
0H7L1085 1459H1200L127 0ZM560 175V269L1000 807H1118V319H1235V175H1118V0H936V175H560Z" />
<glyph unicode="d;" glyph-name="onehalf" horiz-adv-x="1239" d="M113 0H-6L1072 1459H1186L113 0ZM129 1459H353V779H396V691H129V779H180V1370H129V1459ZM643 560Q643 672 729 729Q806 779 911 779Q1079 779 1146 679V680Q1167 652 1176 622T1186 558Q1186
477 1084 390Q1036 352 989 313T894 235Q840 190 809 163T764 119H1129V174H1205V-19H621V7Q619 97 719 192Q766 230 812 267T904 344Q953 386 983 425T1024 494Q1027 506 1029 520T1031 552Q1031 580 1021 601T991 641Q971 661 944 669T885 678Q815 678 770 652Q718
624 717 557L643 560Z" />
<glyph unicode="e;" glyph-name="threequarters" horiz-adv-x="1255" d="M610 319H834Q834 362 834 395Q834 429 834 461T835 527Q835 561 835 605L610 319ZM113 0H-6L1072 1459H1186L113 0ZM140 829Q142 825 142 825Q181 764 247 764Q310 764 349 802T389
905Q389 949 357 996Q324 1044 286 1044H205V1131Q279 1131 287 1133H286Q320 1143 344 1181Q365 1215 365 1258Q365 1310 337 1345Q311 1382 261 1382Q208 1382 157 1293H66Q130 1469 285 1469Q387 1469 454 1417Q490 1388 509 1348T529 1257Q529 1147 449 1091Q554
1029 554 901Q554 799 468 734Q393 677 290 677Q278 677 258 680T210 690Q164 700 137 700Q132 700 125 690H50V870H140V829ZM458 175V269L898 807H1016V319H1133V175H1016V0H834V175H458Z" />
<glyph unicode="f;" glyph-name="questiondown" horiz-adv-x="1035" d="M684 753H451V986H684V753ZM902 -11Q937 -81 953 -132T970 -217Q970 -360 809 -437Q687 -495 535 -495Q372 -495 239 -432H240Q64 -348 64 -198Q64 -161 86 -117T151 -22T253 83T388
195Q457 247 492 314T528 467Q528 514 528 571T529 675H626V397Q626 258 541 154Q502 112 460 68T378 -18Q297 -105 297 -192Q297 -232 316 -268T371 -337Q442 -396 530 -396Q614 -396 675 -340Q736 -282 736 -200Q736 -179 719 -133T665 -17L902 -11Z" />
<glyph unicode="0;" glyph-name="Agrave" horiz-adv-x="1287" d="M721 588Q683 702 647 813T574 1038Q537 922 503 814T432 588H721ZM52 0V102H159Q265 441 371 781T583 1459H694L1130 102H1235V0H801V102H875Q859 152 844 199T814 292T784 386T753 484H399Q383
434 369 387T340 294T311 200T280 102H356V0H52ZM554 1887L729 1594L579 1536L310 1870L554 1887Z" />
<glyph unicode="1;" glyph-name="Aacute" horiz-adv-x="1288" d="M721 588Q683 702 647 813T574 1038Q537 922 503 814T432 588H721ZM52 0V102H159Q265 441 371 781T583 1459H694L1130 102H1235V0H801V102H875Q859 152 844 199T814 292T784 386T753 484H399Q383
434 369 387T340 294T311 200T280 102H356V0H52ZM931 1853L661 1519L511 1577L686 1870L931 1853Z" />
<glyph unicode="2;" glyph-name="Acircumflex" horiz-adv-x="1297" d="M721 588Q683 702 647 813T574 1038Q537 922 503 814T432 588H721ZM52 0V102H159Q265 441 371 781T583 1459H694L1130 102H1235V0H801V102H875Q859 152 844 199T814 292T784 386T753 484H399Q383
434 369 387T340 294T311 200T280 102H356V0H52ZM631 1675L482 1531H357L568 1832H702L913 1531H788L638 1675L635 1672L631 1675Z" />
<glyph unicode="3;" glyph-name="Atilde" horiz-adv-x="1295" d="M721 588Q683 702 647 813T574 1038Q537 922 503 814T432 588H721ZM52 0V102H159Q265 441 371 781T583 1459H694L1130 102H1235V0H801V102H875Q859 152 844 199T814 292T784 386T753 484H399Q383
434 369 387T340 294T311 200T280 102H356V0H52ZM969 1848Q912 1497 759 1497Q710 1497 610 1590Q520 1673 498 1673Q429 1673 386 1510H308Q359 1860 514 1860Q564 1860 663 1768H662Q752 1685 775 1685Q861 1686 884 1849L969 1848Z" />
<glyph unicode="4;" glyph-name="Adieresis" horiz-adv-x="1288" d="M721 588Q683 702 647 813T574 1038Q537 922 503 814T432 588H721ZM52 0V102H159Q265 441 371 781T583 1459H694L1130 102H1235V0H801V102H875Q859 152 844 199T814 292T784 386T753 484H399Q383
434 369 387T340 294T311 200T280 102H356V0H52ZM699 1773H933V1540H699V1773ZM330 1771H564V1538H330V1771Z" />
<glyph unicode="5;" glyph-name="Aring" horiz-adv-x="1174" d="M721 588Q683 702 647 813T574 1038Q537 922 503 814T432 588H721ZM52 0V102H159Q265 441 371 781T583 1459H694L1130 102H1235V0H801V102H875Q859 152 844 199T814 292T784 386T753 484H399Q383
434 369 387T340 294T311 200T280 102H356V0H52ZM535 1634Q535 1596 565 1562H564Q595 1531 634 1531Q677 1531 710 1561V1560Q742 1592 742 1634Q742 1677 710 1707Q681 1739 637 1739Q594 1739 565 1707Q535 1677 535 1634ZM438 1639Q438 1719 496 1777Q558 1836
635 1836Q718 1836 778 1776Q839 1718 839 1634Q839 1548 779 1490Q720 1434 634 1434Q548 1434 493 1495Q464 1526 451 1562T438 1639Z" />
<glyph unicode="6;" glyph-name="AE" horiz-adv-x="1881" d="M967 639V1298Q866 1131 769 970T571 639H967ZM28 0V97H134Q231 258 325 415T512 729T700 1043T891 1362H837V1459H1817V1262H1720V1362H1199V779H1521V881H1619V582H1521V682H1199V97H1720V198H1817V0H866V97H967V542H513Q478
483 446 429T381 320T315 211T247 97H300V0H28Z" />
<glyph unicode="7;" glyph-name="Ccedilla" horiz-adv-x="1142" d="M1123 302L1082 43Q1049 26 1000 14T894 -9Q792 -24 708 -24Q501 -24 350 68Q188 168 125 368Q104 438 94 531T84 741Q84 853 93 940T122 1092Q180 1286 344 1387Q492 1481 704 1481Q936
1481 1079 1415L1117 1157H997Q999 1375 693 1378Q572 1367 488 1284T364 1055Q351 998 344 919T336 741Q336 591 353 478T403 295Q459 192 533 136T695 79Q981 76 1005 302H1123ZM577 57H688L591 -105Q639 -120 667 -130T706 -146Q774 -188 774 -283Q774 -398
677 -443Q646 -456 601 -463T493 -470H414V-373L477 -374Q550 -375 550 -273Q550 -252 544 -236T528 -211Q519 -204 493 -198T426 -184L577 57Z" />
<glyph unicode="8;" glyph-name="Egrave" horiz-adv-x="1085" d="M66 103H167V1356H66V1459H1042L1080 1194H972Q948 1356 859 1356H418V782H718V883H835V580H718V679H418V103H894Q982 103 1006 266H1114L1076 0H66V103ZM540 1862L715 1569L565 1511L296 1845L540
1862Z" />
<glyph unicode="9;" glyph-name="Eacute" horiz-adv-x="1069" d="M314 103H415V1356H314V1459H1290L1328 1194H1220Q1196 1356 1107 1356H666V782H966V883H1083V580H966V679H666V103H1142Q1230 103 1254 266H1362L1324 0H314V103ZM786 1842L516 1508L366 1566L541
1859L786 1842Z" />
<glyph unicode="a;" glyph-name="Ecircumflex" horiz-adv-x="1077" d="M66 103H167V1356H66V1459H1042L1080 1194H972Q948 1356 859 1356H418V782H718V883H835V580H718V679H418V103H894Q982 103 1006 266H1114L1076 0H66V103ZM606 1672L457 1528H332L543 1829H677L888
1528H763L613 1672L610 1669L606 1672Z" />
<glyph unicode="b;" glyph-name="Edieresis" horiz-adv-x="1085" d="M66 103H167V1356H66V1459H1042L1080 1194H972Q948 1356 859 1356H418V782H718V883H835V580H718V679H418V103H894Q982 103 1006 266H1114L1076 0H66V103ZM660 1773H894V1540H660V1773ZM291
1771H525V1538H291V1771Z" />
<glyph unicode="c;" glyph-name="Igrave" horiz-adv-x="616" d="M50 1459H544V1356H430V103H544V0H50V103H178V1356H50V1459ZM329 1861L504 1568L354 1510L85 1844L329 1861Z" />
<glyph unicode="d;" glyph-name="Iacute" horiz-adv-x="607" d="M50 1459H544V1356H430V103H544V0H50V103H178V1356H50V1459ZM576 1859L306 1525L156 1583L331 1876L576 1859Z" />
<glyph unicode="e;" glyph-name="Icircumflex" horiz-adv-x="591" d="M50 1459H544V1356H430V103H544V0H50V103H178V1356H50V1459ZM304 1680L155 1536H30L241 1837H375L586 1536H461L311 1680L308 1677L304 1680Z" />
<glyph unicode="f;" glyph-name="Idieresis" horiz-adv-x="599" d="M50 1459H544V1356H430V103H544V0H50V103H178V1356H50V1459ZM374 1781H608V1548H374V1781ZM5 1779H239V1546H5V1779Z" />
<glyph unicode="&#xd0;" glyph-name="Eth" horiz-adv-x="1279" d="M427 787H757V690H427V102H583Q708 102 762 138Q954 268 954 737Q954 1193 769 1314Q737 1336 688 1346T573 1356H427V787ZM63 787H166V1356H65V1459H637Q972 1459 1107 1247Q1212 1080 1212 730Q1212
380 1110 214Q977 0 646 0H65V103H166V690H63V787Z" />
<glyph unicode="&#xd1;" glyph-name="Ntilde" horiz-adv-x="1231" d="M1087 1356V0H950L288 1153V103H387V0H70V103H171V1356H70V1459H393L970 467V1356H871V1459H1187V1356H1087ZM1017 1856Q960 1505 807 1505Q758 1505 658 1598Q568 1681 546 1681Q477 1681
434 1518H356Q407 1868 562 1868Q612 1868 711 1776H710Q800 1693 823 1693Q909 1694 932 1857L1017 1856Z" />
<glyph unicode="&#xd2;" glyph-name="Ograve" horiz-adv-x="1239" d="M889 1379Q579 1379 579 730Q579 80 890 80Q1200 80 1200 729Q1200 1379 889 1379ZM889 1483Q1453 1483 1453 730Q1453 -24 890 -24Q327 -24 327 730Q327 1483 889 1483ZM597 1870L772 1577L622
1519L353 1853L597 1870Z" />
<glyph unicode="&#xd3;" glyph-name="Oacute" horiz-adv-x="1255" d="M894 1379Q584 1379 584 730Q584 80 895 80Q1205 80 1205 729Q1205 1379 894 1379ZM894 1483Q1458 1483 1458 730Q1458 -24 895 -24Q332 -24 332 730Q332 1483 894 1483ZM912 1857L642 1523L492
1581L667 1874L912 1857Z" />
<glyph unicode="&#xd4;" glyph-name="Ocircumflex" horiz-adv-x="1239" d="M889 1379Q579 1379 579 730Q579 80 890 80Q1200 80 1200 729Q1200 1379 889 1379ZM889 1483Q1453 1483 1453 730Q1453 -24 890 -24Q327 -24 327 730Q327 1483 889 1483ZM644 1695L495
1551H370L581 1852H715L926 1551H801L651 1695L648 1692L644 1695Z" />
<glyph unicode="&#xd5;" glyph-name="Otilde" horiz-adv-x="1247" d="M894 1379Q584 1379 584 730Q584 80 895 80Q1205 80 1205 729Q1205 1379 894 1379ZM894 1483Q1458 1483 1458 730Q1458 -24 895 -24Q332 -24 332 730Q332 1483 894 1483ZM958 1860Q901 1509
748 1509Q699 1509 599 1602Q509 1685 487 1685Q418 1685 375 1522H297Q348 1872 503 1872Q553 1872 652 1780H651Q741 1697 764 1697Q850 1698 873 1861L958 1860Z" />
<glyph unicode="&#xd6;" glyph-name="Odieresis" horiz-adv-x="1231" d="M889 1379Q579 1379 579 730Q579 80 890 80Q1200 80 1200 729Q1200 1379 889 1379ZM889 1483Q1453 1483 1453 730Q1453 -24 890 -24Q327 -24 327 730Q327 1483 889 1483ZM699 1776H933V1543H699V1776ZM330
1774H564V1541H330V1774Z" />
<glyph unicode="&#xd7;" glyph-name="multiply" horiz-adv-x="1228" d="M682 488Q740 430 802 368T926 244T1051 119T1170 0H1033L614 419Q511 316 404 209T194 0H58L545 488L47 986H185L614 557Q720 664 828 772T1043 986H1181L682 488Z" />
<glyph unicode="&#xd8;" glyph-name="Oslash" horiz-adv-x="1355" d="M353 730Q353 569 374 445Q517 623 656 797T938 1152Q857 1384 675 1384Q488 1384 407 1145Q353 983 353 730ZM996 730Q996 819 990 894T970 1035Q826 855 686 680T401 324Q476 74 670 74Q996
74 996 730ZM203 232Q161 319 140 449T118 756Q118 1483 658 1483Q800 1483 904 1444T1078 1326Q1103 1358 1130 1393T1183 1459H1321L1134 1241Q1228 1063 1228 730Q1228 140 922 19Q871 -1 799 -11T635 -21Q388 -21 257 144Q231 111 203 77T150 10L11 -10L203
232Z" />
<glyph unicode="&#xd9;" glyph-name="Ugrave" horiz-adv-x="1442" d="M1109 1459H1437V1356H1334V602Q1334 -19 860 -19Q578 -19 457 164Q359 315 359 605V1356H256V1459H709V1356H610V597Q610 345 649 248Q710 86 908 86Q1208 86 1208 606V1356H1109V1459ZM739
1867L914 1574L764 1516L495 1850L739 1867Z" />
<glyph unicode="&#xda;" glyph-name="Uacute" horiz-adv-x="1450" d="M1101 1459H1429V1356H1326V602Q1326 -19 852 -19Q570 -19 449 164Q351 315 351 605V1356H248V1459H701V1356H602V597Q602 345 641 248Q702 86 900 86Q1200 86 1200 606V1356H1101V1459ZM957
1843L687 1509L537 1567L712 1860L957 1843Z" />
<glyph unicode="&#xdb;" glyph-name="Ucircumflex" horiz-adv-x="1429" d="M1098 1459H1426V1356H1323V602Q1323 -19 849 -19Q567 -19 446 164Q348 315 348 605V1356H245V1459H698V1356H599V597Q599 345 638 248Q699 86 897 86Q1197 86 1197 606V1356H1098V1459ZM726
1683L577 1539H452L663 1840H797L1008 1539H883L733 1683L730 1680L726 1683Z" />
<glyph unicode="&#xdc;" glyph-name="Udieresis" horiz-adv-x="1443" d="M1104 1459H1432V1356H1329V602Q1329 -19 855 -19Q573 -19 452 164Q354 315 354 605V1356H251V1459H704V1356H605V597Q605 345 644 248Q705 86 903 86Q1203 86 1203 606V1356H1104V1459ZM799
1767H1033V1534H799V1767ZM430 1765H664V1532H430V1765Z" />
<glyph unicode="&#xdd;" glyph-name="Yacute" horiz-adv-x="1327" d="M429 103H532Q532 262 532 413T531 725Q438 886 349 1040T167 1356H55V1459H506V1356H454Q522 1229 590 1103T727 846Q766 912 802 975T875 1100T949 1225T1025 1356H975V1459H1268V1358H1156Q1062
1196 971 1039T785 720V103H883V0H429V103ZM928 1852L658 1518L508 1576L683 1869L928 1852Z" />
<glyph unicode="&#xde;" glyph-name="Thorn" horiz-adv-x="1191" d="M394 424H715Q809 424 860 529Q902 614 902 731Q902 846 861 931Q812 1035 716 1035H394V424ZM162 97V1362H59V1459H494V1362H395V1132Q480 1132 564 1132T734 1133Q906 1133 1025 1019Q1143
904 1143 730Q1143 690 1135 652T1112 575Q1010 326 733 326L394 327V97H493V0H58V97H162Z" />
<glyph unicode="&#xdf;" glyph-name="germandbls" horiz-adv-x="1064" d="M455 1377Q309 1377 303 1149V174Q327 177 351 180T398 187Q570 78 651 78Q691 78 722 95T774 144Q792 173 801 211T810 295Q810 451 707 551Q666 590 507 684Q397 755 397 827Q397 884
513 989Q603 1062 603 1173Q603 1258 568 1313Q528 1377 455 1377ZM303 0H-27V97H73V1057Q73 1476 457 1476Q529 1476 592 1458T710 1404Q773 1361 806 1305T839 1177Q838 1035 701 944Q584 866 584 826Q584 787 721 721H720Q797 686 847 656T923 601Q1036 491
1036 323Q1036 159 926 66Q876 27 808 5T659 -18Q482 -18 303 70V0Z" />
<glyph unicode="&#xe0;" glyph-name="agrave" horiz-adv-x="1053" d="M667 72Q742 72 826 151Q864 186 892 224T934 302V526Q907 515 869 502T779 475H780Q724 458 686 442T624 407V408Q560 356 560 248Q560 177 584 129Q612 72 667 72ZM412 955Q531 983 610 997T729
1012Q956 1012 1052 942Q1165 856 1165 633V212Q1165 97 1168 97H1284V0H976Q944 49 936 125Q913 98 883 73T820 29Q724 -24 617 -24Q489 -24 410 41Q327 112 327 241Q327 407 455 475Q516 507 712 547Q870 578 927 632Q929 642 931 654T933 681Q933 915 688 915Q529
915 507 710H412V955ZM453 1392L628 1099L478 1041L209 1375L453 1392Z" />
<glyph unicode="&#xe1;" glyph-name="aacute" horiz-adv-x="1047" d="M660 72Q735 72 819 151Q857 186 885 224T927 302V526Q900 515 862 502T772 475H773Q717 458 679 442T617 407V408Q553 356 553 248Q553 177 577 129Q605 72 660 72ZM405 955Q524 983 603 997T722
1012Q949 1012 1045 942Q1158 856 1158 633V212Q1158 97 1161 97H1277V0H969Q937 49 929 125Q906 98 876 73T813 29Q717 -24 610 -24Q482 -24 403 41Q320 112 320 241Q320 407 448 475Q509 507 705 547Q863 578 920 632Q922 642 924 654T926 681Q926 915 681 915Q522
915 500 710H405V955ZM734 1381L464 1047L314 1105L489 1398L734 1381Z" />
<glyph unicode="&#xe2;" glyph-name="acircumflex" horiz-adv-x="1047" d="M667 72Q742 72 826 151Q864 186 892 224T934 302V526Q907 515 869 502T779 475H780Q724 458 686 442T624 407V408Q560 356 560 248Q560 177 584 129Q612 72 667 72ZM412 955Q531 983
610 997T729 1012Q956 1012 1052 942Q1165 856 1165 633V212Q1165 97 1168 97H1284V0H976Q944 49 936 125Q913 98 883 73T820 29Q724 -24 617 -24Q489 -24 410 41Q327 112 327 241Q327 407 455 475Q516 507 712 547Q870 578 927 632Q929 642 931 654T933 681Q933
915 688 915Q529 915 507 710H412V955ZM516 1474L367 1330H242L453 1631H587L798 1330H673L523 1474L520 1471L516 1474Z" />
<glyph unicode="&#xe3;" glyph-name="atilde" horiz-adv-x="1047" d="M660 72Q735 72 819 151Q857 186 885 224T927 302V526Q900 515 862 502T772 475H773Q717 458 679 442T617 407V408Q553 356 553 248Q553 177 577 129Q605 72 660 72ZM405 955Q524 983 603 997T722
1012Q949 1012 1045 942Q1158 856 1158 633V212Q1158 97 1161 97H1277V0H969Q937 49 929 125Q906 98 876 73T813 29Q717 -24 610 -24Q482 -24 403 41Q320 112 320 241Q320 407 448 475Q509 507 705 547Q863 578 920 632Q922 642 924 654T926 681Q926 915 681 915Q522
915 500 710H405V955ZM830 1641Q773 1290 620 1290Q571 1290 471 1383Q381 1466 359 1466Q290 1466 247 1303H169Q220 1653 375 1653Q425 1653 524 1561H523Q613 1478 636 1478Q722 1479 745 1642L830 1641Z" />
<glyph unicode="&#xe4;" glyph-name="adieresis" horiz-adv-x="1060" d="M660 72Q735 72 819 151Q857 186 885 224T927 302V526Q900 515 862 502T772 475H773Q717 458 679 442T617 407V408Q553 356 553 248Q553 177 577 129Q605 72 660 72ZM405 955Q524 983 603
997T722 1012Q949 1012 1045 942Q1158 856 1158 633V212Q1158 97 1161 97H1277V0H969Q937 49 929 125Q906 98 876 73T813 29Q717 -24 610 -24Q482 -24 403 41Q320 112 320 241Q320 407 448 475Q509 507 705 547Q863 578 920 632Q922 642 924 654T926 681Q926 915
681 915Q522 915 500 710H405V955ZM567 1304H801V1071H567V1304ZM198 1302H432V1069H198V1302Z" />
<glyph unicode="&#xe5;" glyph-name="aring" horiz-adv-x="1066" d="M413 72Q488 72 572 151Q610 186 638 224T680 302V526Q653 515 615 502T525 475H526Q470 458 432 442T370 407V408Q306 356 306 248Q306 177 330 129Q358 72 413 72ZM158 955Q277 983 356 997T475
1012Q702 1012 798 942Q911 856 911 633V212Q911 97 914 97H1030V0H722Q690 49 682 125Q659 98 629 73T566 29Q470 -24 363 -24Q235 -24 156 41Q73 112 73 241Q73 407 201 475Q262 507 458 547Q616 578 673 632Q675 642 677 654T679 681Q679 915 434 915Q275 915
253 710H158V955ZM368 1178Q368 1140 398 1106H397Q428 1075 467 1075Q510 1075 543 1105V1104Q575 1136 575 1178Q575 1221 543 1251Q514 1283 470 1283Q427 1283 398 1251Q368 1221 368 1178ZM271 1183Q271 1263 329 1321Q391 1380 468 1380Q551 1380 611 1320Q672
1262 672 1178Q672 1092 612 1034Q553 978 467 978Q381 978 326 1039Q297 1070 284 1106T271 1183Z" />
<glyph unicode="&#xe6;" glyph-name="ae" horiz-adv-x="1651" d="M1331 610Q1323 759 1269 834T1114 910Q1000 910 946 807Q905 732 902 610H1331ZM401 72Q434 72 471 90T550 147H551Q624 214 658 286V519Q632 508 595 497T505 471Q395 441 355 406Q294 355 294
248Q294 213 299 183T318 129Q332 100 353 86T401 72ZM899 513Q898 492 898 479T899 461Q899 85 1169 85Q1266 85 1347 134Q1429 186 1476 290L1561 237Q1534 169 1489 119T1380 34Q1326 6 1263 -9T1131 -24Q994 -24 885 34H886Q779 91 724 189Q684 141 646 104T578
46Q477 -24 351 -24Q221 -24 144 41Q61 111 61 241Q61 406 188 475Q248 506 445 547Q603 578 660 632Q663 642 665 654T667 681Q667 915 422 915Q263 915 241 710H146V955Q264 983 343 997T463 1012Q701 1012 814 911Q838 931 873 949T948 982Q990 996 1032 1003T1115
1011Q1326 1011 1444 873Q1552 747 1567 513H899Z" />
<glyph unicode="&#xe7;" glyph-name="ccedilla" horiz-adv-x="910" d="M1020 757Q976 838 924 877T808 916Q667 916 600 772Q549 662 549 488Q549 419 563 353T603 228Q670 82 782 82Q969 82 1055 295L1134 244Q1120 183 1080 131T985 43Q933 11 875 -6T757 -23Q639
-23 551 16T409 126Q364 190 341 284T317 500Q317 1011 757 1011Q796 1011 879 987Q953 967 992 967Q1016 967 1030 986H1117V704H1020V757ZM416 59H527L430 -103Q478 -118 506 -128T545 -144Q613 -186 613 -281Q613 -396 516 -441Q485 -454 440 -461T332 -468H253V-371L316
-372Q389 -373 389 -271Q389 -250 383 -234T367 -209Q358 -202 332 -196T265 -182L416 59Z" />
<glyph unicode="&#xe8;" glyph-name="egrave" horiz-adv-x="995" d="M982 610Q974 759 920 834T765 910Q652 910 598 807Q577 769 566 721T553 610H982ZM550 513Q549 492 549 479T550 461Q550 85 821 85Q916 85 999 134Q1038 160 1071 199T1127 290L1213 237Q1186
169 1140 119T1032 34Q978 6 915 -9T783 -24Q666 -24 577 17T427 137Q375 207 348 303T320 518Q320 736 429 869Q547 1011 766 1011Q873 1011 954 977T1096 873Q1205 746 1218 513H550ZM452 1399L627 1106L477 1048L208 1382L452 1399Z" />
<glyph unicode="&#xe9;" glyph-name="eacute" horiz-adv-x="988" d="M981 610Q973 759 919 834T764 910Q651 910 597 807Q576 769 565 721T552 610H981ZM549 513Q548 492 548 479T549 461Q549 85 820 85Q915 85 998 134Q1037 160 1070 199T1126 290L1212 237Q1185
169 1139 119T1031 34Q977 6 914 -9T782 -24Q665 -24 576 17T426 137Q374 207 347 303T319 518Q319 736 428 869Q546 1011 765 1011Q872 1011 953 977T1095 873Q1204 746 1217 513H549ZM766 1381L496 1047L346 1105L521 1398L766 1381Z" />
<glyph unicode="&#xea;" glyph-name="ecircumflex" horiz-adv-x="1001" d="M988 610Q980 759 926 834T771 910Q658 910 604 807Q583 769 572 721T559 610H988ZM556 513Q555 492 555 479T556 461Q556 85 827 85Q922 85 1005 134Q1044 160 1077 199T1133 290L1219
237Q1192 169 1146 119T1038 34Q984 6 921 -9T789 -24Q672 -24 583 17T433 137Q381 207 354 303T326 518Q326 736 435 869Q553 1011 772 1011Q879 1011 960 977T1102 873Q1211 746 1224 513H556ZM510 1470L361 1326H236L447 1627H581L792 1326H667L517 1470L514
1467L510 1470Z" />
<glyph unicode="&#xeb;" glyph-name="edieresis" horiz-adv-x="988" d="M987 610Q979 759 925 834T770 910Q657 910 603 807Q582 769 571 721T558 610H987ZM555 513Q554 492 554 479T555 461Q555 85 826 85Q921 85 1004 134Q1043 160 1076 199T1132 290L1218 237Q1191
169 1145 119T1037 34Q983 6 920 -9T788 -24Q671 -24 582 17T432 137Q380 207 353 303T325 518Q325 736 434 869Q552 1011 771 1011Q878 1011 959 977T1101 873Q1210 746 1223 513H555ZM581 1305H815V1072H581V1305ZM212 1303H446V1070H212V1303Z" />
<glyph unicode="&#xec;" glyph-name="igrave" horiz-adv-x="501" d="M293 986H629V97H727V0H293V97H396V889H293V986ZM484 1655L659 1362L509 1304L240 1638L484 1655Z" />
<glyph unicode="&#xed;" glyph-name="iacute" horiz-adv-x="494" d="M286 986H622V97H720V0H286V97H389V889H286V986ZM515 1631L245 1297L95 1355L270 1648L515 1631Z" />
<glyph unicode="&#xee;" glyph-name="icircumflex" horiz-adv-x="514" d="M304 986H640V97H738V0H304V97H407V889H304V986ZM251 1215L102 1071H-23L188 1372H322L533 1071H408L258 1215L255 1212L251 1215Z" />
<glyph unicode="&#xef;" glyph-name="idieresis" horiz-adv-x="579" d="M66 986H402V97H500V0H66V97H169V889H66V986ZM353 1302H587V1069H353V1302ZM-16 1300H218V1067H-16V1300Z" />
<glyph unicode="&#xf0;" glyph-name="eth" horiz-adv-x="1016" d="M628 742Q551 823 506 823Q490 823 471 815T428 790H429Q270 677 270 451Q270 398 280 348T311 252Q334 204 367 165T440 100Q460 89 475 82T501 75L507 76H504Q614 96 681 220Q708 274 722 335T737
462Q737 598 701 748L628 742ZM209 1128Q213 1131 226 1138T253 1153T280 1170T299 1181Q314 1190 328 1198T357 1216T391 1237T434 1262Q403 1290 371 1312T313 1347Q252 1373 81 1394L233 1479Q469 1447 591 1354Q614 1368 641 1384T691 1414L930 1382L702 1247Q765
1175 813 1086T900 888Q970 679 970 461Q970 244 845 113Q720 -22 502 -22Q292 -22 163 108Q36 241 36 450Q36 655 167 789Q299 923 504 923Q582 923 657 900Q632 970 601 1031T532 1146Q512 1134 491 1121T449 1096L209 1128Z" />
<glyph unicode="&#xf1;" glyph-name="ntilde" horiz-adv-x="1177" d="M947 0V97H1047V578Q1047 911 849 911Q743 911 648 798V97H749V0H314V97H415V889H314V986H648V932Q699 970 757 990T882 1010Q1076 1010 1181 890Q1280 777 1280 583V97H1381V0H947ZM964 1402Q907
1051 754 1051Q705 1051 605 1144Q515 1227 493 1227Q424 1227 381 1064H303Q354 1414 509 1414Q559 1414 658 1322H657Q747 1239 770 1239Q856 1240 879 1403L964 1402Z" />
<glyph unicode="&#xf2;" glyph-name="ograve" horiz-adv-x="1037" d="M552 488Q552 326 598 219Q658 75 786 75Q849 75 896 112T974 218Q996 272 1008 340T1020 486Q1020 648 974 761Q912 912 787 912Q722 912 675 873T597 765Q577 711 565 640T552 488ZM1252
493Q1252 219 1134 98Q1018 -21 747 -21Q319 -21 319 493Q319 1009 810 1009Q1252 1009 1252 493ZM515 1394L690 1101L540 1043L271 1377L515 1394Z" />
<glyph unicode="&#xf3;" glyph-name="oacute" horiz-adv-x="1009" d="M538 488Q538 326 584 219Q644 75 772 75Q835 75 882 112T960 218Q982 272 994 340T1006 486Q1006 648 960 761Q898 912 773 912Q708 912 661 873T583 765Q563 711 551 640T538 488ZM1238 493Q1238
219 1120 98Q1004 -21 733 -21Q305 -21 305 493Q305 1009 796 1009Q1238 1009 1238 493ZM789 1386L519 1052L369 1110L544 1403L789 1386Z" />
<glyph unicode="&#xf4;" glyph-name="ocircumflex" horiz-adv-x="1030" d="M545 488Q545 326 591 219Q651 75 779 75Q842 75 889 112T967 218Q989 272 1001 340T1013 486Q1013 648 967 761Q905 912 780 912Q715 912 668 873T590 765Q570 711 558 640T545 488ZM1245
493Q1245 219 1127 98Q1011 -21 740 -21Q312 -21 312 493Q312 1009 803 1009Q1245 1009 1245 493ZM527 1217L378 1073H253L464 1374H598L809 1073H684L534 1217L531 1214L527 1217Z" />
<glyph unicode="&#xf5;" glyph-name="otilde" horiz-adv-x="1037" d="M545 488Q545 326 591 219Q651 75 779 75Q842 75 889 112T967 218Q989 272 1001 340T1013 486Q1013 648 967 761Q905 912 780 912Q715 912 668 873T590 765Q570 711 558 640T545 488ZM1245
493Q1245 219 1127 98Q1011 -21 740 -21Q312 -21 312 493Q312 1009 803 1009Q1245 1009 1245 493ZM868 1398Q811 1047 658 1047Q609 1047 509 1140Q419 1223 397 1223Q328 1223 285 1060H207Q258 1410 413 1410Q463 1410 562 1318H561Q651 1235 674 1235Q760 1236
783 1399L868 1398Z" />
<glyph unicode="&#xf6;" glyph-name="odieresis" horiz-adv-x="1044" d="M552 488Q552 326 598 219Q658 75 786 75Q849 75 896 112T974 218Q996 272 1008 340T1020 486Q1020 648 974 761Q912 912 787 912Q722 912 675 873T597 765Q577 711 565 640T552 488ZM1252
493Q1252 219 1134 98Q1018 -21 747 -21Q319 -21 319 493Q319 1009 810 1009Q1252 1009 1252 493ZM587 1305H821V1072H587V1305ZM218 1303H452V1070H218V1303Z" />
<glyph unicode="&#xf7;" glyph-name="divide" horiz-adv-x="1097" d="M412 1044H645V810H412V1044ZM412 291H645V57H412V291ZM4 602H1096V505H4V602Z" />
<glyph unicode="&#xf8;" glyph-name="oslash" horiz-adv-x="1074" d="M762 486Q762 530 759 570T747 651Q646 536 549 425T348 198Q409 75 527 75Q590 75 637 112T715 218Q737 272 749 340T762 486ZM294 488Q294 436 299 391T312 305Q415 420 513 532T715 760Q653
912 528 912Q464 912 417 873T339 765Q318 711 306 640T294 488ZM993 493Q993 218 876 98Q760 -21 489 -21Q324 -21 224 57Q211 43 198 28T173 0H43L156 127Q106 195 83 285T60 493Q60 1009 552 1009Q739 1009 849 911Q865 928 882 949T915 986H1043L912 838Q993
707 993 493Z" />
<glyph unicode="&#xf9;" glyph-name="ugrave" horiz-adv-x="1155" d="M642 986V409Q642 76 840 76Q946 76 1041 189V889H940V986H1274V97H1375V0H1041V54Q990 17 932 -3T807 -23Q613 -23 508 96Q409 208 409 404V889H308V986H642ZM536 1397L711 1104L561 1046L292
1380L536 1397Z" />
<glyph unicode="&#xfa;" glyph-name="uacute" horiz-adv-x="1176" d="M649 986V409Q649 76 847 76Q953 76 1048 189V889H947V986H1281V97H1382V0H1048V54Q997 17 939 -3T814 -23Q620 -23 515 96Q416 208 416 404V889H315V986H649ZM788 1386L518 1052L368 1110L543
1403L788 1386Z" />
<glyph unicode="&#xfb;" glyph-name="ucircumflex" horiz-adv-x="1161" d="M640 986V409Q640 76 838 76Q944 76 1039 189V889H938V986H1272V97H1373V0H1039V54Q988 17 930 -3T805 -23Q611 -23 506 96Q407 208 407 404V889H306V986H640ZM544 1211L395 1067H270L481
1368H615L826 1067H701L551 1211L548 1208L544 1211Z" />
<glyph unicode="&#xfc;" glyph-name="udieresis" horiz-adv-x="1145" d="M640 986V409Q640 76 838 76Q944 76 1039 189V889H938V986H1272V97H1373V0H1039V54Q988 17 930 -3T805 -23Q611 -23 506 96Q407 208 407 404V889H306V986H640ZM608 1303H842V1070H608V1303ZM239
1301H473V1068H239V1301Z" />
<glyph unicode="&#xfd;" glyph-name="yacute" horiz-adv-x="1055" d="M641 889Q668 818 693 754T743 625T793 496T847 358Q873 427 898 492T948 622T998 753T1050 889H979V986H1259V889H1154Q1045 602 938 318T722 -253Q638 -474 473 -474Q442 -474 400 -465L401
-279Q474 -316 513 -316Q589 -316 633 -215L632 -216Q657 -148 680 -85T729 47Q646 261 567 468T404 889H299V986H710V889H641ZM791 1381L521 1047L371 1105L546 1398L791 1381Z" />
<glyph unicode="&#xfe;" glyph-name="thorn" horiz-adv-x="1055" d="M385 170Q401 153 421 136T468 103Q522 73 570 73Q581 73 591 75T615 83H614Q787 153 787 488Q787 793 645 893H646Q617 913 588 913Q540 913 490 888T386 812L385 170ZM53 -371H155V1362H53V1459H387L386
948Q432 977 488 993T611 1009Q1020 1009 1020 493Q1020 -20 600 -20Q536 -20 483 -6T385 39V-371H486V-468H53V-371Z" />
<glyph unicode="&#xff;" glyph-name="ydieresis" horiz-adv-x="1048" d="M641 889Q668 818 693 754T743 625T793 496T847 358Q873 427 898 492T948 622T998 753T1050 889H979V986H1259V889H1154Q1045 602 938 318T722 -253Q638 -474 473 -474Q442 -474 400 -465L401
-279Q474 -316 513 -316Q589 -316 633 -215L632 -216Q657 -148 680 -85T729 47Q646 261 567 468T404 889H299V986H710V889H641ZM643 1305H877V1072H643V1305ZM274 1303H508V1070H274V1303Z" />
</font>
</defs>
</svg>
